<?xml version="1.0" encoding="UTF-8"?><svg xmlns="http://www.w3.org/2000/svg" viewBox="0 0 1200 1200"><defs><style>.d{fill:#f4eded;}.e{fill:#fdbe11;}.f{fill:#634392;}</style></defs><g id="a"/><g id="b"><g id="c"><g><rect class="d" width="1200" height="1200" rx="91.12" ry="91.12"/><g><path class="e" d="M792.62,229.34l-122.72-.12,66.34,115.16c3.03,5.26,3.02,11.74-.02,16.99l-127.97,221.16c-6.23,10.76-6.24,24.02-.03,34.8l203.68,353.57,61.41-106.12c6.23-10.77,6.25-24.04,.04-34.83l-121.96-211.97c-6.38-11.09-6.37-24.75,.04-35.83l127.95-221.33c3.04-5.25,3.02-11.73-.03-16.97l-56.66-97.23c-6.23-10.7-17.68-17.28-30.06-17.29Z"/><path class="f" d="M527.36,229.08l61.11,106.07c6.27,10.88,6.26,24.28-.03,35.15l-118.73,205.19c-8.7,15.03-8.72,33.56-.06,48.61l199.62,346.81-114.43-.23c-17.55-.04-33.76-9.43-42.51-24.64l-189.3-328.86c-6.24-10.85-6.23-24.2,.04-35.04l204.29-353.06Z"/></g></g></g></g></svg>